<svg width="680" height="594" viewBox="0 0 680 594" fill="none" xmlns="http://www.w3.org/2000/svg">
<path d="M525.654 298.969V309.342C492.113 328.728 469.544 364.983 469.544 406.509V298.969H525.654Z" fill="black"/>
<path d="M469.544 406.509C469.544 448.034 492.113 484.289 525.654 503.675V593.546H469.544V406.509Z" fill="black"/>
<path fill-rule="evenodd" clip-rule="evenodd" d="M679.887 406.509C679.887 460.739 635.924 504.701 581.694 504.701C527.464 504.701 483.502 460.739 483.502 406.509C483.502 352.279 527.464 308.316 581.694 308.316C635.924 308.316 679.887 352.279 679.887 406.509ZM634.999 406.509C634.999 435.948 611.133 459.813 581.694 459.813C552.255 459.813 528.39 435.948 528.39 406.509C528.39 377.07 552.255 353.204 581.694 353.204C611.133 353.204 634.999 377.07 634.999 406.509Z" fill="black"/>
<path d="M457.431 399.532C411.629 463.224 336.877 504.701 252.438 504.701C113.083 504.701 0.113281 391.732 0.113281 252.377C0.113281 113.022 113.083 0.0524902 252.438 0.0524902C336.877 0.0524902 411.629 41.5296 457.431 105.221L341.055 172.412C319.211 148.219 287.6 133.015 252.438 133.015C186.516 133.015 133.076 186.455 133.076 252.377C133.076 318.298 186.516 371.739 252.438 371.739C287.6 371.739 319.211 356.535 341.055 332.342L457.431 399.532Z" fill="black"/>
</svg>
